<svg width="160" height="159" xmlns="http://www.w3.org/2000/svg">
 <!-- Created with Method Draw - http://github.com/duopixel/Method-Draw/ -->

 <g>
  <title>background</title>
  <rect fill="#fff" id="canvas_background" height="161" width="162" y="-1" x="-1"/>
  <g display="none" overflow="visible" y="0" x="0" height="100%" width="100%" id="canvasGrid">
   <rect fill="url(#gridpattern)" stroke-width="0" y="1" x="1" height="400" width="580"/>
  </g>
 </g>
 <g>
  <title>Layer 1</title>
  <g id="svg_5">
   <path id="svg_4" d="m9.42666,115.479997zm148.8889,35.128893a5.33333,5.33333 0 0 1 -5.33334,5.33333l-144.26667,0a5.33333,5.33333 0 0 1 -5.33333,-5.33333c0,-27.16445 34.27555,-38.02667 49.01333,-41.42223a0.39111,0.39111 0 0 0 0.30222,-0.40889l0,-5.74222a44.88889,44.88889 0 0 1 -7.48444,-14.93333c-3.84,-3.80445 -5.54667,-9.83111 -6.47111,-13.08445c-1.49334,-5.33333 -3.00445,-12.94222 1.12,-18.4l0.17778,-0.23111c-0.26667,-1.61778 -0.46223,-3.18222 -0.58667,-4.78222c-1.77778,-12.44445 -0.42667,-21.61778 4.28444,-27.41334a15.62667,15.62667 0 0 1 10.20445,-5.76c2.4,-8.28444 14.11555,-16.37333 24.76444,-14.22222c10.36445,2.15111 32.00001,-0.28444 32.12445,-0.30222a1.08444,1.08444 0 0 1 0.76445,0.23111a1.01333,1.01333 0 0 1 0.37333,0.71111a10.66667,10.66667 0 0 1 -3.04,7.73333c17.22667,11.48445 14.73778,34.15112 12.74667,43.75112l0.17777,0.23111c4.12445,5.45778 2.63112,13.12 1.13778,18.4c-0.92444,3.25333 -2.63111,9.28 -6.47111,13.08444a44.71111,44.71111 0 0 1 -7.48444,14.82667l0,5.84889a0.40889,0.40889 0 0 0 0.30222,0.40889c14.72,3.44889 48.97778,14.29333 48.97778,41.47556zm-54.29334,-32.14223a11.02222,11.02222 0 0 1 -5.13778,-6.08a36.64,36.64 0 0 1 -7.71555,3.89334a31.16445,31.16445 0 0 1 -20.78223,0a35.87556,35.87556 0 0 1 -7.73333,-3.85778a11.04,11.04 0 0 1 -5.03111,5.99111a29.06667,29.06667 0 0 0 46.32889,0l0.07111,0.05333zm4.69334,-36.67555c0.55111,0 2.52444,-0.85334 4.96,-9.44c1.90222,-6.70223 1.10222,-9.13778 0.44444,-9.99112a2.45333,2.45333 0 0 0 -2.29333,-0.8a1.03111,1.03111 0 0 1 -0.90667,-0.39111a1.01333,1.01333 0 0 1 -0.16,-0.96l0,-0.19555c0.48,-1.6 2.47111,-9.76 -4.46222,-14.88c-6.08,1.35111 -16,1.77777 -29.45778,-4c-6.4,-2.73778 -11.91111,-2.82667 -16.17778,-0.32c-8.55111,5.33333 -9.77778,19.73333 -9.77778,19.87555a1.01333,1.01333 0 0 1 -1.06667,0.94223l-0.46222,0a2.18667,2.18667 0 0 0 -1.88444,0.81777c-0.64,0.85334 -1.44,3.28889 0.44444,9.99111c2.43556,8.56889 4.40889,9.38667 4.96,9.44001a1.01333,1.01333 0 0 1 0.92445,0.85333c1.38666,8.88889 8.17777,20.48 19.80444,24.56889a21.33333,21.33333 0 0 0 14.34667,0c11.21778,-4.08889 18.48889,-15.44889 19.82222,-24.60445a1.01333,1.01333 0 0 1 1.01334,-0.85333l-0.07111,-0.05333z"/>
  </g>
 </g>
</svg>